<svg version="1.1" viewBox="0.0 0.0 960.0 720.0" fill="none" stroke="none" stroke-linecap="square" stroke-miterlimit="10" xmlns:xlink="http://www.w3.org/1999/xlink" xmlns="http://www.w3.org/2000/svg"><clipPath id="p.0"><path d="m0 0l960.0 0l0 720.0l-960.0 0l0 -720.0z" clip-rule="nonzero"/></clipPath><g clip-path="url(#p.0)"><path fill="#000000" fill-opacity="0.0" d="m0 0l960.0 0l0 720.0l-960.0 0z" fill-rule="evenodd"/><path fill="#6aa84f" d="m595.22003 274.78323c-0.46795654 0 -0.9177246 0.026428223 -1.3492432 0.07925415c-1.9179077 0.23483276 -3.8358765 0.83499146 -5.753784 1.800415c-1.1747437 0.49578857 -3.128662 1.8265381 -5.8617554 3.9922485c-2.7090454 2.165741 -5.7297974 4.735901 -9.062256 7.7105103c-3.3084106 2.9485168 -6.4730225 5.988373 -9.493774 9.119537c-3.020752 3.131195 -5.4901123 5.897064 -7.408081 8.297607c-2.637146 3.6791382 -5.502075 8.049744 -8.594727 13.111786c-3.0927124 5.03598 -6.0775146 10.202423 -8.954407 15.499298c-2.876892 5.2969055 -5.3462524 10.228516 -7.408081 14.7948c-2.0617676 4.566284 -3.4642334 8.284576 -4.2074585 11.154816c-2.4932861 10.28067 -4.255432 20.717896 -5.286316 31.311707c-1.0308838 10.5677185 -0.65930176 20.33957 1.1148071 29.315613c1.1747437 6.3927917 3.63208 11.480957 7.3720703 15.264465c3.763977 3.7573853 8.031372 6.601532 12.802246 8.53244c4.794861 1.9308777 9.361938 3.1311646 13.701294 3.60083c3.272522 0.3522644 5.9785767 0.52838135 8.118286 0.52838135c0.71325684 0 1.3635254 -0.019561768 1.9509277 -0.058685303c2.9487915 -0.46969604 6.1134033 -1.2263794 9.493774 -2.270111c3.404358 -1.0437317 6.5689697 -2.243988 9.493835 -3.6008606c2.9487915 -1.3568115 5.382202 -2.687561 7.30011 -3.992218c1.9179688 -1.2785645 2.8769531 -2.2309875 2.8769531 -2.8572083c-0.14385986 -0.8088684 -0.17980957 -1.2915955 -0.107910156 -1.4481812c0.07196045 -0.15655518 0.40759277 -0.31311035 1.006958 -0.46966553c0.8870239 -0.33920288 2.0977173 -1.6307983 3.63208 -3.874817c1.5583496 -2.2440186 2.9608154 -4.605438 4.2074585 -7.0842896c1.2466431 -2.4788513 1.8699951 -4.122711 1.8699951 -4.9315796c-0.2876587 -2.8963318 -1.1747437 -5.414337 -2.6611328 -7.553955c-1.4624023 -2.165741 -3.152588 -3.4443054 -5.0705566 -3.8356934c-0.26916504 -0.05859375 -0.5352783 -0.087890625 -0.79833984 -0.087890625c-1.611145 0 -3.1071167 1.0991211 -4.487976 3.2973328c-2.8049927 4.4880066 -5.7178345 8.023651 -8.738647 10.606842c-3.020752 2.5571594 -7.6956787 4.4749756 -14.024902 5.75354c-3.958435 0.4465027 -7.4887085 0.6697693 -10.590759 0.6697693c-3.6050415 0 -6.631775 -0.3015442 -9.080139 -0.90460205c-0.8870239 -0.65231323 -2.0737305 -2.0222168 -3.5601807 -4.10968c-1.4624023 -2.0874329 -2.3374634 -3.444275 -2.625183 -4.0704956c-2.4932861 -8.349823 -3.52417 -17.247559 -3.0926514 -26.693268c0.43151855 -9.471771 2.4094238 -19.334991 5.9335938 -29.58957c3.5482178 -10.254578 8.714661 -20.509186 15.49939 -30.763763c3.2365112 -4.9837646 6.916565 -9.797943 11.040161 -14.442535c4.123535 -4.644562 8.1032715 -8.688995 11.939148 -12.133301c3.8358765 -3.444275 6.8566284 -5.6491394 9.062256 -6.6145935c1.1707153 -0.8177185 2.5769653 -1.226593 4.218811 -1.226593c0.6109009 0 1.2544556 0.056610107 1.930603 0.16983032c2.517273 0.39138794 4.147583 1.304657 4.890747 2.7397766c2.0617676 1.7743225 2.9368896 4.4227905 2.625183 7.945343c-0.28771973 3.522583 -1.4624023 8.962982 -3.524231 16.321228c-1.6062622 6.1058044 -2.013794 10.202423 -1.2226562 12.289856c0.8151245 2.0874634 2.8529053 3.7704468 6.1134033 5.049011c2.3063354 0.8930359 4.7767944 1.3395691 7.411316 1.3395691c0.21356201 0 0.4282837 -0.0029296875 0.64404297 -0.00881958c2.876892 -0.07827759 4.159546 -0.67840576 3.8479004 -1.800415c0 -0.8088989 0.21575928 -2.4527588 0.64727783 -4.93161c0.45550537 -2.5049133 1.0189209 -5.3099365 1.6901855 -8.415009c0.67126465 -3.1311646 1.3305664 -5.9361877 1.9779053 -8.415039c0.67126465 -2.5049438 1.2226562 -4.1488037 1.6541748 -4.9315796c0.45550537 -0.65234375 0.9710083 -1.3699036 1.5463867 -2.1526794c0.5993042 -0.8088989 0.755188 -1.6177979 0.46746826 -2.4266663c0 0 0.107910156 -0.40444946 0.32366943 -1.2133179c0.21575928 -0.8088989 0.32366943 -1.2133484 0.32366943 -1.2133484c1.0308838 -1.74823 1.9059448 -4.1879272 2.625122 -7.3191223c0.7432251 -3.1311646 1.258667 -5.8970337 1.5463867 -8.297607c0.2925415 -2.2535706 0.25769043 -3.380371 -0.10473633 -3.380371c-0.023620605 0 -0.04864502 0.0047912598 -0.07507324 0.014373779c-1.1987305 -1.1220093 -1.3545532 -2.4005737 -0.4675293 -3.8356934c-0.13446045 -1.0488281 -0.9812012 -1.5732422 -2.5402222 -1.5732422c-0.10876465 0 -0.22094727 0.0025634766 -0.33666992 0.007659912c-1.7501221 0.07827759 -3.656067 0.48272705 -5.7178345 1.2133484c-2.0618286 0.7044983 -3.6081543 1.6960449 -4.639038 2.9746094c-1.6623535 0.60305786 -2.9021606 0.90460205 -3.7194214 0.90460205c-0.7032471 0 -1.09375 -0.22323608 -1.1713257 -0.6697693c-0.14385986 -1.4351196 -1.1028442 -2.9485168 -2.876892 -4.5401917c-1.7501221 -1.6177979 -3.8119507 -3.1051025 -6.185364 -4.4619446c-2.3494873 -1.356842 -4.5551147 -2.1135254 -6.6169434 -2.2700806c-2.0437622 -0.6268921 -3.871582 -0.94033813 -5.4833984 -0.94033813zm-93.49048 4.4628906c-0.86309814 0 -1.7101746 0.10437012 -2.5412903 0.31314087c-1.2466431 0.31311035 -2.5412598 0.7175598 -3.8838196 1.2133179c-1.4624329 1.2785645 -3.452301 2.3614197 -5.9696045 3.2485962c-2.4933167 0.86105347 -4.9866333 1.4612122 -7.47995 1.800415c-3.404358 0.46966553 -7.1323547 1.1872253 -11.1839905 2.1526794c-4.0516357 0.9654541 -7.6957397 2.0483093 -10.932251 3.2485962c-3.2365417 1.2002869 -5.3702393 2.283142 -6.401123 3.2485962c-0.7432251 0.46966553 -1.1867371 1.356842 -1.3305969 2.661499c-0.14382935 1.2785645 -0.14382935 2.6354065 0 4.070526c0.4555359 1.5916748 1.5583496 3.157257 3.3084717 4.696747c1.0187683 0.8690796 1.8675842 1.3036194 2.5464172 1.3036194c0.5032654 0 0.91311646 -0.23883057 1.2295227 -0.7165222c0.43151855 -0.31311035 1.6781921 -0.6262512 3.7399902 -0.9393616c2.0617676 -0.33920288 4.411255 -0.6262207 7.0484314 -0.86105347c2.6611328 -0.23486328 5.094513 -0.430542 7.3001404 -0.58709717c2.2296143 -0.15655518 3.6321106 -0.23486328 4.207489 -0.23486328c0.59936523 0.1565857 0.31167603 2.7658997 -0.8630676 7.827942c-1.1747437 5.03598 -3.6800537 13.881531 -7.51593 26.536682c-0.2876892 1.6177673 -0.91104126 4.2270813 -1.8699951 7.827942c-0.9589844 3.60083 -1.9539185 7.123413 -2.9848022 10.567688c-1.0308838 3.4443054 -1.8460083 5.897064 -2.4453735 7.3582764c-0.2876892 1.4351196 -0.94699097 3.9922485 -1.9778748 7.671356c-1.0308838 3.6791382 -2.2176208 7.8148804 -3.5601807 12.407288c-1.318573 4.566284 -2.5652466 8.858582 -3.7399902 12.876923c-1.1747131 3.9922485 -2.0617676 7.110382 -2.6611328 9.354401c-1.0308838 3.6791077 -1.7261353 6.5624084 -2.0857544 8.649841c-0.35961914 2.0874634 -0.8391113 4.00531 -1.438446 5.75354l-2.1936646 4.8141785l-9.278015 0.27398682c-6.35318 0.15655518 -11.519653 1.3568115 -15.499359 3.60083c-3.9557495 2.2440186 -6.0175476 4.3184204 -6.185364 6.2232056c-0.2876892 1.304657 0.22775269 2.596283 1.5463257 3.874817c1.3425598 1.2785645 3.1166687 2.2309875 5.322296 2.8572083c1.4902954 0.44076538 2.947754 0.66116333 4.3723755 0.66116333c0.6838074 0 1.3600769 -0.05078125 2.0287476 -0.15234375c2.16156 -0.14224243 4.0891113 -0.2133789 5.7826843 -0.2133789c2.3449402 0 4.241272 0.13635254 5.6889954 0.40905762c2.5173035 0.49578857 4.291382 1.6308289 5.322296 3.4051514c2.2399597 2.5697327 4.6073 3.8545532 7.102051 3.8545532c0.4690857 0 0.942688 -0.045410156 1.4207764 -0.13626099c3.0207825 -0.54797363 4.447235 -2.113556 4.279419 -4.6967773c0 -1.1219788 0.5154419 -1.9308777 1.5463257 -2.4266663c1.0309143 -0.46966553 3.3444214 -0.82192993 6.9405518 -1.0567627c3.6201172 -0.23483276 9.266052 -0.5088196 16.937805 -0.82192993c0.42294312 0.008026123 0.839386 0.012054443 1.2493286 0.012054443c7.5839233 0 12.945282 -1.3739014 16.084076 -4.121704c3.332428 -2.8702698 3.5242004 -6.4711 0.5753784 -10.802551c-0.45550537 -1.4351196 -0.91101074 -2.4266663 -1.3665466 -2.9746094c-0.3390503 -0.4510498 -1.3219299 -0.6765747 -2.948639 -0.6765747c-0.44363403 0 -0.93518066 0.016784668 -1.4746094 0.050323486c-2.4933167 0.15655518 -7.1922607 0.63931274 -14.096863 1.4481812c-3.8358765 0.31311035 -7.012451 0.58709717 -9.529755 0.82192993c-2.4933167 0.23483276 -3.7399902 0.3522644 -3.7399902 0.3522644c1.1747437 -4.4880066 2.2056274 -8.53244 3.092682 -12.133301c0.88705444 -3.6008606 1.8460083 -7.358246 2.8769226 -11.272217c1.0308838 -3.9400635 2.2415771 -8.558533 3.63208 -13.855438c1.4144897 -5.2969055 3.1526184 -11.8723755 5.2144165 -19.72638c0.14382935 -0.8088989 0.39556885 -2.0483093 0.755188 -3.7182617c0.38357544 -1.6960754 0.8630676 -3.2616577 1.438446 -4.6967773c0.45550537 -1.1220093 1.1987305 -3.3268738 2.2296143 -6.6145935c1.0308838 -3.2877197 2.1696777 -6.966858 3.4163208 -11.037384c1.2466736 -4.0966187 2.457367 -8.062775 3.6321106 -11.898468c1.1747437 -3.8617554 2.0617676 -6.8363953 2.6611328 -8.923828c1.1747437 -3.5225525 2.1696777 -6.8494263 2.9848022 -9.980621c0.8151245 -3.1311646 1.1387634 -5.009857 0.97094727 -5.6361084c0.59936523 -0.8088684 1.0788574 -1.5264282 1.4384766 -2.1526794c0.38357544 -0.65231323 0.8630676 -1.304657 1.438446 -1.9569702c0.7431946 -1.2785645 5.9815674 -2.4005737 15.715118 -3.3660278c3.8118896 -0.15655518 6.892578 -0.3522339 9.242065 -0.58706665c2.3734741 -0.23486328 4.2194824 -0.5218811 5.538086 -0.861084c0.18414307 0.011444092 0.36437988 0.017181396 0.5405884 0.017181396c2.2322998 0 3.826233 -0.91897583 4.7816772 -2.756958c1.0308838 -2.0091553 1.1747437 -4.5401917 0.43151855 -7.5930786c-1.0308838 -2.2440186 -3.2125244 -4.0444336 -6.544983 -5.4012756c-2.0980225 -0.8604431 -5.189087 -1.2906494 -9.273193 -1.2906494c-2.3562012 0 -5.0429077 0.14318848 -8.060181 0.42956543c-3.2365112 0.1826477 -6.2932434 0.27398682 -9.1701355 0.27398682c-2.8529358 0 -4.8787537 -0.40444946 -6.077484 -1.2133484c-0.43951416 -0.05218506 -0.87506104 -0.07827759 -1.3065796 -0.07827759zm-77.33084 -11.4678955c-3.9797363 0 -9.433868 0.92630005 -16.362427 2.7789001c-6.9045715 1.8265076 -15.295563 5.3099365 -25.172974 10.450287c-2.948822 3.052887 -5.681885 5.1403503 -8.199188 6.2623596c-2.4933167 1.1219788 -4.1115723 1.9178162 -4.8547974 2.3875122l-0.5393982 0c-0.35961914 0 -0.61135864 0.40441895 -0.755188 1.2133179c0 0 -0.67129517 0.6784363 -2.013855 2.0352783c-1.318573 1.356842 -2.5652466 2.67453 -3.7399902 3.9530945c-1.630249 1.1220093 -3.8118896 3.2485962 -6.5449524 6.3797607c-2.7091064 3.1311646 -5.5380554 6.627655 -8.486908 10.489441c-2.948822 3.8356628 -5.609955 7.553955 -7.9833984 11.154785c-2.3494873 3.6008606 -3.95578 6.523285 -4.8188477 8.767273c-1.9179382 3.861786 -3.2844543 8.193237 -4.099579 12.994385c-0.8151245 4.801117 -0.93499756 9.328278 -0.35961914 13.581451c0.59936523 4.253174 2.0857544 7.5800476 4.459198 9.980621c1.3186035 2.5832214 3.2245483 5.283844 5.717865 8.101898c2.5173035 2.7919617 5.250366 5.3490906 8.199188 7.671356c2.9488525 2.3222961 5.597992 4.1227417 7.9474792 5.4012756c2.0617676 1.1220093 4.015686 2.165741 5.8616943 3.131195c1.8460083 0.9654236 3.8718567 2.0091553 6.077484 3.1311646c2.7810059 2.8702393 4.93869 4.9577026 6.473053 6.262329c1.5583191 1.2785645 2.7450256 2.3222961 3.5601807 3.131195c0.8151245 0.7827759 1.438446 1.8134766 1.8699646 3.0920105c2.5173035 4.1748962 3.6201172 7.827942 3.3084717 10.959106c-0.2876892 3.1311646 -2.1936646 5.5708923 -5.717865 7.3191223c-4.4313354 2.0077515 -8.845856 3.0116272 -13.243622 3.0116272c-0.8604431 0 -1.7202454 -0.03845215 -2.5793762 -0.11529541c-5.22641 -0.49575806 -9.8654175 -2.0222168 -13.917084 -4.5793457c-4.027649 -2.557129 -7.000458 -5.6882935 -8.918396 -9.393494c-0.9470825 -2.1877747 -2.1123047 -3.2816772 -3.495697 -3.2816772c-0.33255005 0 -0.67770386 0.063201904 -1.0354614 0.18963623c-1.8460083 0.6262207 -3.584137 1.5786438 -5.214386 2.8571777c-1.6062927 0.8088989 -3.0087585 1.5003662 -4.207489 2.0744019c-1.1747437 0.54797363 -1.2466431 2.0222168 -0.21575928 4.4227905c0.59936523 1.4612122 1.7741089 3.7182617 3.5242004 6.7711487c1.7741089 3.026825 3.8358765 5.975342 6.185364 8.845581c2.3734436 2.8963318 4.6629944 5.1533813 6.868622 6.7711487c1.630249 0.15655518 2.697113 0.5479431 3.2005615 1.1741943c0.5274353 0.65231323 0.64730835 1.3829346 0.35961914 2.1918335c0 0 0.8031311 0.2739563 2.4094238 0.82192993c1.630249 0.57403564 3.7639465 1.2524719 6.401123 2.0352478c0.8217468 0.0440979 1.677002 0.06613159 2.565796 0.06613159c2.7933044 0 5.9177856 -0.21774292 9.373383 -0.65322876c4.579071 -0.57403564 8.774567 -1.3046265 12.586487 -2.191803c3.8358765 -0.861084 6.2692566 -1.6177979 7.3001404 -2.270111c1.0309143 -0.46966553 1.9539185 -1.0307007 2.769043 -1.6830139c0.8151245 -0.6262207 2.0258179 -1.1872253 3.63208 -1.6829834c0.09100342 0.008026123 0.18243408 0.012023926 0.27438354 0.012023926c1.700592 0 3.5630493 -1.3739014 5.5873413 -4.121704c2.1336975 -2.8702393 3.7160034 -5.5839233 4.746887 -8.141052c0.59936523 -2.0874329 1.0788574 -4.7750244 1.4384766 -8.062775c0.35958862 -3.2877197 0.35958862 -6.692871 0 -10.215424c-0.35961914 -3.522583 -1.4264832 -6.6537476 -3.2005615 -9.393524c-0.88705444 -2.0613403 -2.8769226 -4.6576233 -5.9696045 -7.788788c-3.092682 -3.131195 -6.8566284 -6.3797607 -11.29187 -9.745789c-4.411255 -3.3659973 -9.1102295 -6.5754395 -14.096863 -9.628357c-5.7538147 -3.6791077 -10.296936 -6.758087 -13.629364 -9.236938c-3.3084412 -2.5049438 -5.322296 -5.03598 -6.041504 -7.593109c-1.0309143 -2.557129 -1.0309143 -5.9622498 0 -10.215454c1.0308838 -4.253174 2.7929993 -8.21933 5.286316 -11.8984375c2.948822 -5.4534607 5.526062 -9.941467 7.7316895 -13.46405c2.2056274 -3.5225525 4.7828674 -6.249298 7.7316895 -8.180176c3.092682 -1.4351196 4.794861 -3.039856 5.106537 -4.8141785c0.14382935 -0.31311035 1.0188904 -1.1089478 2.625183 -2.3875122c1.630249 -1.304657 3.584137 -2.7919617 5.8616943 -4.4619446c2.2775574 -1.6960449 4.5910645 -3.3399048 6.9405518 -4.9315796c2.3734436 -1.6177673 4.3992615 -2.9354858 6.077484 -3.9530945c1.7021484 -1.0437317 2.709076 -1.5656128 3.020752 -1.5656128c0.14382935 0.039154053 0.26971436 0.05871582 0.377594 0.05871582c0.32363892 0 0.48547363 -0.17611694 0.48547363 -0.52838135c0 -0.49575806 0 -0.74365234 0 -0.74365234c0 -0.31311035 1.066864 -0.874115 3.2005615 -1.6830139c2.1336975 -0.8088684 4.6390076 -1.5655823 7.51593 -2.2700806c2.876892 -0.73062134 5.5620117 -1.3307495 8.055359 -1.8004456c1.5428467 -0.303833 2.7795105 -0.45578003 3.709961 -0.45578003c0.5876465 0 1.0531616 0.06060791 1.3965454 0.18182373c2.948822 0.49575806 4.2674255 2.3483582 3.9557495 5.557831c-0.2876892 3.1833496 -2.7929993 8.545471 -7.51593 16.086395c-3.6680603 4.4880066 -5.9096375 7.619171 -6.7247925 9.393494c-0.8151245 1.7482605 -1.2226868 3.2746887 -1.2226868 4.5793457c-0.14382935 3.0267944 1.2226868 5.270813 4.0996094 6.732025c1.226593 0.61187744 2.5664978 0.91781616 4.019684 0.91781616c1.9552307 0 4.11557 -0.553833 6.4810486 -1.6614685c3.6680603 -2.243988 7.228241 -5.727417 10.680511 -10.450287c3.4762878 -4.7228394 6.2093506 -9.771881 8.199219 -15.147034c1.9898376 -5.375183 2.4693298 -9.980621 1.438446 -13.816315c-0.43154907 -3.8617554 -1.941925 -7.306061 -4.531128 -10.332855c-2.5892334 -3.052887 -5.645935 -5.5839233 -9.170166 -7.593109c-3.5242004 -2.0091553 -7.132324 -3.0920105 -10.824371 -3.2485657z" fill-rule="evenodd"/><path stroke="#274e13" stroke-width="1.0" stroke-linejoin="round" stroke-linecap="butt" d="m595.22003 274.78323c-0.46795654 0 -0.9177246 0.026428223 -1.3492432 0.07925415c-1.9179077 0.23483276 -3.8358765 0.83499146 -5.753784 1.800415c-1.1747437 0.49578857 -3.128662 1.8265381 -5.8617554 3.9922485c-2.7090454 2.165741 -5.7297974 4.735901 -9.062256 7.7105103c-3.3084106 2.9485168 -6.4730225 5.988373 -9.493774 9.119537c-3.020752 3.131195 -5.4901123 5.897064 -7.408081 8.297607c-2.637146 3.6791382 -5.502075 8.049744 -8.594727 13.111786c-3.0927124 5.03598 -6.0775146 10.202423 -8.954407 15.499298c-2.876892 5.2969055 -5.3462524 10.228516 -7.408081 14.7948c-2.0617676 4.566284 -3.4642334 8.284576 -4.2074585 11.154816c-2.4932861 10.28067 -4.255432 20.717896 -5.286316 31.311707c-1.0308838 10.5677185 -0.65930176 20.33957 1.1148071 29.315613c1.1747437 6.3927917 3.63208 11.480957 7.3720703 15.264465c3.763977 3.7573853 8.031372 6.601532 12.802246 8.53244c4.794861 1.9308777 9.361938 3.1311646 13.701294 3.60083c3.272522 0.3522644 5.9785767 0.52838135 8.118286 0.52838135c0.71325684 0 1.3635254 -0.019561768 1.9509277 -0.058685303c2.9487915 -0.46969604 6.1134033 -1.2263794 9.493774 -2.270111c3.404358 -1.0437317 6.5689697 -2.243988 9.493835 -3.6008606c2.9487915 -1.3568115 5.382202 -2.687561 7.30011 -3.992218c1.9179688 -1.2785645 2.8769531 -2.2309875 2.8769531 -2.8572083c-0.14385986 -0.8088684 -0.17980957 -1.2915955 -0.107910156 -1.4481812c0.07196045 -0.15655518 0.40759277 -0.31311035 1.006958 -0.46966553c0.8870239 -0.33920288 2.0977173 -1.6307983 3.63208 -3.874817c1.5583496 -2.2440186 2.9608154 -4.605438 4.2074585 -7.0842896c1.2466431 -2.4788513 1.8699951 -4.122711 1.8699951 -4.9315796c-0.2876587 -2.8963318 -1.1747437 -5.414337 -2.6611328 -7.553955c-1.4624023 -2.165741 -3.152588 -3.4443054 -5.0705566 -3.8356934c-0.26916504 -0.05859375 -0.5352783 -0.087890625 -0.79833984 -0.087890625c-1.611145 0 -3.1071167 1.0991211 -4.487976 3.2973328c-2.8049927 4.4880066 -5.7178345 8.023651 -8.738647 10.606842c-3.020752 2.5571594 -7.6956787 4.4749756 -14.024902 5.75354c-3.958435 0.4465027 -7.4887085 0.6697693 -10.590759 0.6697693c-3.6050415 0 -6.631775 -0.3015442 -9.080139 -0.90460205c-0.8870239 -0.65231323 -2.0737305 -2.0222168 -3.5601807 -4.10968c-1.4624023 -2.0874329 -2.3374634 -3.444275 -2.625183 -4.0704956c-2.4932861 -8.349823 -3.52417 -17.247559 -3.0926514 -26.693268c0.43151855 -9.471771 2.4094238 -19.334991 5.9335938 -29.58957c3.5482178 -10.254578 8.714661 -20.509186 15.49939 -30.763763c3.2365112 -4.9837646 6.916565 -9.797943 11.040161 -14.442535c4.123535 -4.644562 8.1032715 -8.688995 11.939148 -12.133301c3.8358765 -3.444275 6.8566284 -5.6491394 9.062256 -6.6145935c1.1707153 -0.8177185 2.5769653 -1.226593 4.218811 -1.226593c0.6109009 0 1.2544556 0.056610107 1.930603 0.16983032c2.517273 0.39138794 4.147583 1.304657 4.890747 2.7397766c2.0617676 1.7743225 2.9368896 4.4227905 2.625183 7.945343c-0.28771973 3.522583 -1.4624023 8.962982 -3.524231 16.321228c-1.6062622 6.1058044 -2.013794 10.202423 -1.2226562 12.289856c0.8151245 2.0874634 2.8529053 3.7704468 6.1134033 5.049011c2.3063354 0.8930359 4.7767944 1.3395691 7.411316 1.3395691c0.21356201 0 0.4282837 -0.0029296875 0.64404297 -0.00881958c2.876892 -0.07827759 4.159546 -0.67840576 3.8479004 -1.800415c0 -0.8088989 0.21575928 -2.4527588 0.64727783 -4.93161c0.45550537 -2.5049133 1.0189209 -5.3099365 1.6901855 -8.415009c0.67126465 -3.1311646 1.3305664 -5.9361877 1.9779053 -8.415039c0.67126465 -2.5049438 1.2226562 -4.1488037 1.6541748 -4.9315796c0.45550537 -0.65234375 0.9710083 -1.3699036 1.5463867 -2.1526794c0.5993042 -0.8088989 0.755188 -1.6177979 0.46746826 -2.4266663c0 0 0.107910156 -0.40444946 0.32366943 -1.2133179c0.21575928 -0.8088989 0.32366943 -1.2133484 0.32366943 -1.2133484c1.0308838 -1.74823 1.9059448 -4.1879272 2.625122 -7.3191223c0.7432251 -3.1311646 1.258667 -5.8970337 1.5463867 -8.297607c0.2925415 -2.2535706 0.25769043 -3.380371 -0.10473633 -3.380371c-0.023620605 0 -0.04864502 0.0047912598 -0.07507324 0.014373779c-1.1987305 -1.1220093 -1.3545532 -2.4005737 -0.4675293 -3.8356934c-0.13446045 -1.0488281 -0.9812012 -1.5732422 -2.5402222 -1.5732422c-0.10876465 0 -0.22094727 0.0025634766 -0.33666992 0.007659912c-1.7501221 0.07827759 -3.656067 0.48272705 -5.7178345 1.2133484c-2.0618286 0.7044983 -3.6081543 1.6960449 -4.639038 2.9746094c-1.6623535 0.60305786 -2.9021606 0.90460205 -3.7194214 0.90460205c-0.7032471 0 -1.09375 -0.22323608 -1.1713257 -0.6697693c-0.14385986 -1.4351196 -1.1028442 -2.9485168 -2.876892 -4.5401917c-1.7501221 -1.6177979 -3.8119507 -3.1051025 -6.185364 -4.4619446c-2.3494873 -1.356842 -4.5551147 -2.1135254 -6.6169434 -2.2700806c-2.0437622 -0.6268921 -3.871582 -0.94033813 -5.4833984 -0.94033813zm-93.49048 4.4628906c-0.86309814 0 -1.7101746 0.10437012 -2.5412903 0.31314087c-1.2466431 0.31311035 -2.5412598 0.7175598 -3.8838196 1.2133179c-1.4624329 1.2785645 -3.452301 2.3614197 -5.9696045 3.2485962c-2.4933167 0.86105347 -4.9866333 1.4612122 -7.47995 1.800415c-3.404358 0.46966553 -7.1323547 1.1872253 -11.1839905 2.1526794c-4.0516357 0.9654541 -7.6957397 2.0483093 -10.932251 3.2485962c-3.2365417 1.2002869 -5.3702393 2.283142 -6.401123 3.2485962c-0.7432251 0.46966553 -1.1867371 1.356842 -1.3305969 2.661499c-0.14382935 1.2785645 -0.14382935 2.6354065 0 4.070526c0.4555359 1.5916748 1.5583496 3.157257 3.3084717 4.696747c1.0187683 0.8690796 1.8675842 1.3036194 2.5464172 1.3036194c0.5032654 0 0.91311646 -0.23883057 1.2295227 -0.7165222c0.43151855 -0.31311035 1.6781921 -0.6262512 3.7399902 -0.9393616c2.0617676 -0.33920288 4.411255 -0.6262207 7.0484314 -0.86105347c2.6611328 -0.23486328 5.094513 -0.430542 7.3001404 -0.58709717c2.2296143 -0.15655518 3.6321106 -0.23486328 4.207489 -0.23486328c0.59936523 0.1565857 0.31167603 2.7658997 -0.8630676 7.827942c-1.1747437 5.03598 -3.6800537 13.881531 -7.51593 26.536682c-0.2876892 1.6177673 -0.91104126 4.2270813 -1.8699951 7.827942c-0.9589844 3.60083 -1.9539185 7.123413 -2.9848022 10.567688c-1.0308838 3.4443054 -1.8460083 5.897064 -2.4453735 7.3582764c-0.2876892 1.4351196 -0.94699097 3.9922485 -1.9778748 7.671356c-1.0308838 3.6791382 -2.2176208 7.8148804 -3.5601807 12.407288c-1.318573 4.566284 -2.5652466 8.858582 -3.7399902 12.876923c-1.1747131 3.9922485 -2.0617676 7.110382 -2.6611328 9.354401c-1.0308838 3.6791077 -1.7261353 6.5624084 -2.0857544 8.649841c-0.35961914 2.0874634 -0.8391113 4.00531 -1.438446 5.75354l-2.1936646 4.8141785l-9.278015 0.27398682c-6.35318 0.15655518 -11.519653 1.3568115 -15.499359 3.60083c-3.9557495 2.2440186 -6.0175476 4.3184204 -6.185364 6.2232056c-0.2876892 1.304657 0.22775269 2.596283 1.5463257 3.874817c1.3425598 1.2785645 3.1166687 2.2309875 5.322296 2.8572083c1.4902954 0.44076538 2.947754 0.66116333 4.3723755 0.66116333c0.6838074 0 1.3600769 -0.05078125 2.0287476 -0.15234375c2.16156 -0.14224243 4.0891113 -0.2133789 5.7826843 -0.2133789c2.3449402 0 4.241272 0.13635254 5.6889954 0.40905762c2.5173035 0.49578857 4.291382 1.6308289 5.322296 3.4051514c2.2399597 2.5697327 4.6073 3.8545532 7.102051 3.8545532c0.4690857 0 0.942688 -0.045410156 1.4207764 -0.13626099c3.0207825 -0.54797363 4.447235 -2.113556 4.279419 -4.6967773c0 -1.1219788 0.5154419 -1.9308777 1.5463257 -2.4266663c1.0309143 -0.46966553 3.3444214 -0.82192993 6.9405518 -1.0567627c3.6201172 -0.23483276 9.266052 -0.5088196 16.937805 -0.82192993c0.42294312 0.008026123 0.839386 0.012054443 1.2493286 0.012054443c7.5839233 0 12.945282 -1.3739014 16.084076 -4.121704c3.332428 -2.8702698 3.5242004 -6.4711 0.5753784 -10.802551c-0.45550537 -1.4351196 -0.91101074 -2.4266663 -1.3665466 -2.9746094c-0.3390503 -0.4510498 -1.3219299 -0.6765747 -2.948639 -0.6765747c-0.44363403 0 -0.93518066 0.016784668 -1.4746094 0.050323486c-2.4933167 0.15655518 -7.1922607 0.63931274 -14.096863 1.4481812c-3.8358765 0.31311035 -7.012451 0.58709717 -9.529755 0.82192993c-2.4933167 0.23483276 -3.7399902 0.3522644 -3.7399902 0.3522644c1.1747437 -4.4880066 2.2056274 -8.53244 3.092682 -12.133301c0.88705444 -3.6008606 1.8460083 -7.358246 2.8769226 -11.272217c1.0308838 -3.9400635 2.2415771 -8.558533 3.63208 -13.855438c1.4144897 -5.2969055 3.1526184 -11.8723755 5.2144165 -19.72638c0.14382935 -0.8088989 0.39556885 -2.0483093 0.755188 -3.7182617c0.38357544 -1.6960754 0.8630676 -3.2616577 1.438446 -4.6967773c0.45550537 -1.1220093 1.1987305 -3.3268738 2.2296143 -6.6145935c1.0308838 -3.2877197 2.1696777 -6.966858 3.4163208 -11.037384c1.2466736 -4.0966187 2.457367 -8.062775 3.6321106 -11.898468c1.1747437 -3.8617554 2.0617676 -6.8363953 2.6611328 -8.923828c1.1747437 -3.5225525 2.1696777 -6.8494263 2.9848022 -9.980621c0.8151245 -3.1311646 1.1387634 -5.009857 0.97094727 -5.6361084c0.59936523 -0.8088684 1.0788574 -1.5264282 1.4384766 -2.1526794c0.38357544 -0.65231323 0.8630676 -1.304657 1.438446 -1.9569702c0.7431946 -1.2785645 5.9815674 -2.4005737 15.715118 -3.3660278c3.8118896 -0.15655518 6.892578 -0.3522339 9.242065 -0.58706665c2.3734741 -0.23486328 4.2194824 -0.5218811 5.538086 -0.861084c0.18414307 0.011444092 0.36437988 0.017181396 0.5405884 0.017181396c2.2322998 0 3.826233 -0.91897583 4.7816772 -2.756958c1.0308838 -2.0091553 1.1747437 -4.5401917 0.43151855 -7.5930786c-1.0308838 -2.2440186 -3.2125244 -4.0444336 -6.544983 -5.4012756c-2.0980225 -0.8604431 -5.189087 -1.2906494 -9.273193 -1.2906494c-2.3562012 0 -5.0429077 0.14318848 -8.060181 0.42956543c-3.2365112 0.1826477 -6.2932434 0.27398682 -9.1701355 0.27398682c-2.8529358 0 -4.8787537 -0.40444946 -6.077484 -1.2133484c-0.43951416 -0.05218506 -0.87506104 -0.07827759 -1.3065796 -0.07827759zm-77.33084 -11.4678955c-3.9797363 0 -9.433868 0.92630005 -16.362427 2.7789001c-6.9045715 1.8265076 -15.295563 5.3099365 -25.172974 10.450287c-2.948822 3.052887 -5.681885 5.1403503 -8.199188 6.2623596c-2.4933167 1.1219788 -4.1115723 1.9178162 -4.8547974 2.3875122l-0.5393982 0c-0.35961914 0 -0.61135864 0.40441895 -0.755188 1.2133179c0 0 -0.67129517 0.6784363 -2.013855 2.0352783c-1.318573 1.356842 -2.5652466 2.67453 -3.7399902 3.9530945c-1.630249 1.1220093 -3.8118896 3.2485962 -6.5449524 6.3797607c-2.7091064 3.1311646 -5.5380554 6.627655 -8.486908 10.489441c-2.948822 3.8356628 -5.609955 7.553955 -7.9833984 11.154785c-2.3494873 3.6008606 -3.95578 6.523285 -4.8188477 8.767273c-1.9179382 3.861786 -3.2844543 8.193237 -4.099579 12.994385c-0.8151245 4.801117 -0.93499756 9.328278 -0.35961914 13.581451c0.59936523 4.253174 2.0857544 7.5800476 4.459198 9.980621c1.3186035 2.5832214 3.2245483 5.283844 5.717865 8.101898c2.5173035 2.7919617 5.250366 5.3490906 8.199188 7.671356c2.9488525 2.3222961 5.597992 4.1227417 7.9474792 5.4012756c2.0617676 1.1220093 4.015686 2.165741 5.8616943 3.131195c1.8460083 0.9654236 3.8718567 2.0091553 6.077484 3.1311646c2.7810059 2.8702393 4.93869 4.9577026 6.473053 6.262329c1.5583191 1.2785645 2.7450256 2.3222961 3.5601807 3.131195c0.8151245 0.7827759 1.438446 1.8134766 1.8699646 3.0920105c2.5173035 4.1748962 3.6201172 7.827942 3.3084717 10.959106c-0.2876892 3.1311646 -2.1936646 5.5708923 -5.717865 7.3191223c-4.4313354 2.0077515 -8.845856 3.0116272 -13.243622 3.0116272c-0.8604431 0 -1.7202454 -0.03845215 -2.5793762 -0.11529541c-5.22641 -0.49575806 -9.8654175 -2.0222168 -13.917084 -4.5793457c-4.027649 -2.557129 -7.000458 -5.6882935 -8.918396 -9.393494c-0.9470825 -2.1877747 -2.1123047 -3.2816772 -3.495697 -3.2816772c-0.33255005 0 -0.67770386 0.063201904 -1.0354614 0.18963623c-1.8460083 0.6262207 -3.584137 1.5786438 -5.214386 2.8571777c-1.6062927 0.8088989 -3.0087585 1.5003662 -4.207489 2.0744019c-1.1747437 0.54797363 -1.2466431 2.0222168 -0.21575928 4.4227905c0.59936523 1.4612122 1.7741089 3.7182617 3.5242004 6.7711487c1.7741089 3.026825 3.8358765 5.975342 6.185364 8.845581c2.3734436 2.8963318 4.6629944 5.1533813 6.868622 6.7711487c1.630249 0.15655518 2.697113 0.5479431 3.2005615 1.1741943c0.5274353 0.65231323 0.64730835 1.3829346 0.35961914 2.1918335c0 0 0.8031311 0.2739563 2.4094238 0.82192993c1.630249 0.57403564 3.7639465 1.2524719 6.401123 2.0352478c0.8217468 0.0440979 1.677002 0.06613159 2.565796 0.06613159c2.7933044 0 5.9177856 -0.21774292 9.373383 -0.65322876c4.579071 -0.57403564 8.774567 -1.3046265 12.586487 -2.191803c3.8358765 -0.861084 6.2692566 -1.6177979 7.3001404 -2.270111c1.0309143 -0.46966553 1.9539185 -1.0307007 2.769043 -1.6830139c0.8151245 -0.6262207 2.0258179 -1.1872253 3.63208 -1.6829834c0.09100342 0.008026123 0.18243408 0.012023926 0.27438354 0.012023926c1.700592 0 3.5630493 -1.3739014 5.5873413 -4.121704c2.1336975 -2.8702393 3.7160034 -5.5839233 4.746887 -8.141052c0.59936523 -2.0874329 1.0788574 -4.7750244 1.4384766 -8.062775c0.35958862 -3.2877197 0.35958862 -6.692871 0 -10.215424c-0.35961914 -3.522583 -1.4264832 -6.6537476 -3.2005615 -9.393524c-0.88705444 -2.0613403 -2.8769226 -4.6576233 -5.9696045 -7.788788c-3.092682 -3.131195 -6.8566284 -6.3797607 -11.29187 -9.745789c-4.411255 -3.3659973 -9.1102295 -6.5754395 -14.096863 -9.628357c-5.7538147 -3.6791077 -10.296936 -6.758087 -13.629364 -9.236938c-3.3084412 -2.5049438 -5.322296 -5.03598 -6.041504 -7.593109c-1.0309143 -2.557129 -1.0309143 -5.9622498 0 -10.215454c1.0308838 -4.253174 2.7929993 -8.21933 5.286316 -11.8984375c2.948822 -5.4534607 5.526062 -9.941467 7.7316895 -13.46405c2.2056274 -3.5225525 4.7828674 -6.249298 7.7316895 -8.180176c3.092682 -1.4351196 4.794861 -3.039856 5.106537 -4.8141785c0.14382935 -0.31311035 1.0188904 -1.1089478 2.625183 -2.3875122c1.630249 -1.304657 3.584137 -2.7919617 5.8616943 -4.4619446c2.2775574 -1.6960449 4.5910645 -3.3399048 6.9405518 -4.9315796c2.3734436 -1.6177673 4.3992615 -2.9354858 6.077484 -3.9530945c1.7021484 -1.0437317 2.709076 -1.5656128 3.020752 -1.5656128c0.14382935 0.039154053 0.26971436 0.05871582 0.377594 0.05871582c0.32363892 0 0.48547363 -0.17611694 0.48547363 -0.52838135c0 -0.49575806 0 -0.74365234 0 -0.74365234c0 -0.31311035 1.066864 -0.874115 3.2005615 -1.6830139c2.1336975 -0.8088684 4.6390076 -1.5655823 7.51593 -2.2700806c2.876892 -0.73062134 5.5620117 -1.3307495 8.055359 -1.8004456c1.5428467 -0.303833 2.7795105 -0.45578003 3.709961 -0.45578003c0.5876465 0 1.0531616 0.06060791 1.3965454 0.18182373c2.948822 0.49575806 4.2674255 2.3483582 3.9557495 5.557831c-0.2876892 3.1833496 -2.7929993 8.545471 -7.51593 16.086395c-3.6680603 4.4880066 -5.9096375 7.619171 -6.7247925 9.393494c-0.8151245 1.7482605 -1.2226868 3.2746887 -1.2226868 4.5793457c-0.14382935 3.0267944 1.2226868 5.270813 4.0996094 6.732025c1.226593 0.61187744 2.5664978 0.91781616 4.019684 0.91781616c1.9552307 0 4.11557 -0.553833 6.4810486 -1.6614685c3.6680603 -2.243988 7.228241 -5.727417 10.680511 -10.450287c3.4762878 -4.7228394 6.2093506 -9.771881 8.199219 -15.147034c1.9898376 -5.375183 2.4693298 -9.980621 1.438446 -13.816315c-0.43154907 -3.8617554 -1.941925 -7.306061 -4.531128 -10.332855c-2.5892334 -3.052887 -5.645935 -5.5839233 -9.170166 -7.593109c-3.5242004 -2.0091553 -7.132324 -3.0920105 -10.824371 -3.2485657z" fill-rule="evenodd"/></g></svg>