<svg version="1.1" viewBox="0.0 0.0 960.0 720.0" fill="none" stroke="none" stroke-linecap="square" stroke-miterlimit="10" xmlns:xlink="http://www.w3.org/1999/xlink" xmlns="http://www.w3.org/2000/svg"><clipPath id="p.0"><path d="m0 0l960.0 0l0 720.0l-960.0 0l0 -720.0z" clip-rule="nonzero"/></clipPath><g clip-path="url(#p.0)"><path fill="#000000" fill-opacity="0.0" d="m0 0l960.0 0l0 720.0l-960.0 0z" fill-rule="evenodd"/><path fill="#6aa84f" d="m539.57947 269.65692c-6.6168823 1.0176392 -17.369324 1.6830139 -32.257324 1.9961243c-13.449554 0.31311035 -23.08722 1.2524719 -28.912964 2.8180542l-2.265564 6.57547c6.616913 -1.6438904 11.795349 -2.4658203 15.535309 -2.4658203l2.8049927 0c-7.911499 35.695374 -14.240692 63.158356 -18.98761 82.38898c-4.746887 19.204529 -7.62381 30.137543 -8.630737 32.79904c-1.2226868 3.2094421 -3.5481873 5.583893 -6.9765015 7.123413c-3.4043274 1.5133972 -8.486877 2.8180542 -15.24762 3.913971l-1.4024963 5.9883423c7.4080505 -1.4090271 16.038788 -2.1135254 25.892212 -2.1135254c9.134186 0 19.419128 0.46966553 30.854858 1.4090271l4.531128 0.23483276l1.7261353 0l1.7261658 -5.5186768l-3.77594 0c-5.753845 0 -10.896301 -0.7828064 -15.42746 -2.3483887c10.716492 -49.081116 19.563019 -86.694336 26.53949 -112.83963c0.93499756 -3.3659973 2.1217651 -5.923126 3.5601807 -7.671356c1.4384766 -1.7743225 3.3444214 -3.092041 5.7178955 -3.953125c2.373413 -0.86105347 6.796692 -1.5264282 13.269714 -1.9961243l1.7261353 -6.3406067zm-123.85098 -1.4090271c-9.278015 0 -17.93274 2.0352478 -25.964111 6.105774c-8.007385 4.070526 -14.348572 9.654449 -19.02356 16.75177c-4.674988 7.0712585 -7.0124817 14.520813 -7.0124817 22.348755c0 3.60083 0.5154419 7.084259 1.5463562 10.450287c1.0548706 3.3659973 2.637146 6.67984 4.746887 9.941467c2.133728 3.2355347 6.077484 7.984497 11.831299 14.246826c7.1203613 7.5148315 12.023102 13.698883 14.708221 18.552216c2.709076 4.853302 4.063629 9.980591 4.063629 15.381866c0 9.784912 -3.4882507 18.317352 -10.464752 25.597351c-6.976532 7.2799683 -15.17572 10.919952 -24.597595 10.919952c-6.185364 -0.6262512 -10.680542 -2.4527588 -13.485535 -5.479553c-2.8049622 -3.000702 -4.7109375 -7.593109 -5.7178345 -13.777161c-0.7911682 -4.2270813 -1.9299316 -7.5670166 -3.4163513 -10.019745c-1.4624329 -2.4788513 -3.8118896 -3.7182617 -7.0484314 -3.7182617c-3.020752 0 -5.645935 1.2394104 -7.8755493 3.7182617c-2.2295837 2.4527283 -3.3443909 5.714386 -3.3443909 9.784912c0 4.853302 1.8340149 9.328278 5.502075 13.424896c3.6680603 4.122711 8.522858 7.3974 14.564362 9.824066c6.0415344 2.4266357 12.154968 3.6399841 18.340302 3.6399841c10.500732 0 20.641846 -2.3744812 30.42334 -7.123413c9.781494 -4.72287 17.369354 -11.0112915 22.76355 -18.865326c5.394226 -7.880127 8.091309 -16.516937 8.091309 -25.910461c-0.14382935 -5.870941 -1.762085 -11.781036 -4.854767 -17.730255c-3.092682 -5.9492188 -9.745544 -14.403381 -19.958588 -25.362488c-5.1065063 -5.479553 -8.594757 -9.941467 -10.464752 -13.385773c-1.8699951 -3.444275 -2.8049927 -7.4756775 -2.8049927 -12.094147c0 -8.141052 2.7810059 -15.225311 8.343048 -21.252838c5.5859985 -6.0274963 12.083008 -9.04126 19.491058 -9.04126c5.7538147 0 10.1770935 1.9178467 13.269745 5.75354c3.092682 3.8356934 4.639038 9.236969 4.639038 16.203827c0 5.557831 -0.2876892 11.389618 -0.8630676 17.495422l5.7178345 0c2.2296143 -16.43866 3.6680603 -25.949585 4.3153687 -28.532806c0.64730835 -2.5832214 1.5463562 -5.8318176 2.697113 -9.745789l1.1867371 -4.461914c-4.674988 -0.7828064 -9.457855 -1.5786438 -14.348602 -2.3875122c-4.890747 -0.83499146 -9.889374 -1.2524719 -14.995911 -1.2524719zm207.0297 -0.46966553c-13.161865 0 -26.17987 4.957672 -39.054077 14.873047c-12.8741455 9.889282 -23.326965 23.053253 -31.358337 39.491913c-8.007385 16.43866 -12.011108 33.112152 -12.011108 50.020477c0 11.741882 2.0498047 22.153046 6.149414 31.23346c4.0996094 9.080383 9.853455 16.047241 17.261475 20.900574c7.40802 4.853302 15.787048 7.2799683 25.137024 7.2799683c5.250366 0 10.548645 -1.0176392 15.894897 -3.052887c5.3702393 -2.0352783 10.320923 -4.775055 14.852051 -8.21933c4.531128 -3.4443054 8.678711 -7.553955 12.442627 -12.32901c3.7879639 -4.7750244 5.681946 -8.21933 5.681946 -10.332855c0 -0.7045288 -0.31170654 -1.4481812 -0.93499756 -2.230957c-0.59936523 -0.7828064 -1.4025269 -1.1741943 -2.4094238 -1.1741943c-0.7192383 0 -1.6062622 0.6914673 -2.6611328 2.0744019c-1.0308838 1.356842 -2.2895508 3.052887 -3.77594 5.0881653c-1.4624634 2.0352478 -3.128662 4.2270813 -4.998657 6.5754395c-1.8699951 2.3483887 -4.0516357 4.540222 -6.544983 6.57547c-2.4693604 2.0352478 -5.2383423 3.7313232 -8.307068 5.0881653c-3.0447388 1.3829346 -6.4370728 2.0744019 -10.177063 2.0744019c-9.637634 0 -17.285461 -4.6576233 -22.94336 -13.97287c-5.633972 -9.315247 -8.450928 -21.68335 -8.450928 -37.1044c0 -15.342743 2.637146 -30.450623 7.911499 -45.3237c5.298279 -14.873077 12.490601 -27.01941 21.576843 -36.439026c9.1102295 -9.445679 18.376282 -14.168549 27.798157 -14.168549c7.1922607 0 12.778259 2.7006226 16.757996 8.101898c4.003662 5.4012756 6.005554 13.385773 6.005554 23.953491c0 2.3483582 -0.21575928 6.810272 -0.64733887 13.385742l5.933655 0c0.50341797 -14.403381 2.9128418 -28.806793 7.2282104 -43.210175l-8.522827 -3.052887c-10.932251 -4.070526 -20.210327 -6.105774 -27.834106 -6.105774z" fill-rule="evenodd"/><path stroke="#274e13" stroke-width="1.0" stroke-linejoin="round" stroke-linecap="butt" d="m539.57947 269.65692c-6.6168823 1.0176392 -17.369324 1.6830139 -32.257324 1.9961243c-13.449554 0.31311035 -23.08722 1.2524719 -28.912964 2.8180542l-2.265564 6.57547c6.616913 -1.6438904 11.795349 -2.4658203 15.535309 -2.4658203l2.8049927 0c-7.911499 35.695374 -14.240692 63.158356 -18.98761 82.38898c-4.746887 19.204529 -7.62381 30.137543 -8.630737 32.79904c-1.2226868 3.2094421 -3.5481873 5.583893 -6.9765015 7.123413c-3.4043274 1.5133972 -8.486877 2.8180542 -15.24762 3.913971l-1.4024963 5.9883423c7.4080505 -1.4090271 16.038788 -2.1135254 25.892212 -2.1135254c9.134186 0 19.419128 0.46966553 30.854858 1.4090271l4.531128 0.23483276l1.7261353 0l1.7261658 -5.5186768l-3.77594 0c-5.753845 0 -10.896301 -0.7828064 -15.42746 -2.3483887c10.716492 -49.081116 19.563019 -86.694336 26.53949 -112.83963c0.93499756 -3.3659973 2.1217651 -5.923126 3.5601807 -7.671356c1.4384766 -1.7743225 3.3444214 -3.092041 5.7178955 -3.953125c2.373413 -0.86105347 6.796692 -1.5264282 13.269714 -1.9961243l1.7261353 -6.3406067zm-123.85098 -1.4090271c-9.278015 0 -17.93274 2.0352478 -25.964111 6.105774c-8.007385 4.070526 -14.348572 9.654449 -19.02356 16.75177c-4.674988 7.0712585 -7.0124817 14.520813 -7.0124817 22.348755c0 3.60083 0.5154419 7.084259 1.5463562 10.450287c1.0548706 3.3659973 2.637146 6.67984 4.746887 9.941467c2.133728 3.2355347 6.077484 7.984497 11.831299 14.246826c7.1203613 7.5148315 12.023102 13.698883 14.708221 18.552216c2.709076 4.853302 4.063629 9.980591 4.063629 15.381866c0 9.784912 -3.4882507 18.317352 -10.464752 25.597351c-6.976532 7.2799683 -15.17572 10.919952 -24.597595 10.919952c-6.185364 -0.6262512 -10.680542 -2.4527588 -13.485535 -5.479553c-2.8049622 -3.000702 -4.7109375 -7.593109 -5.7178345 -13.777161c-0.7911682 -4.2270813 -1.9299316 -7.5670166 -3.4163513 -10.019745c-1.4624329 -2.4788513 -3.8118896 -3.7182617 -7.0484314 -3.7182617c-3.020752 0 -5.645935 1.2394104 -7.8755493 3.7182617c-2.2295837 2.4527283 -3.3443909 5.714386 -3.3443909 9.784912c0 4.853302 1.8340149 9.328278 5.502075 13.424896c3.6680603 4.122711 8.522858 7.3974 14.564362 9.824066c6.0415344 2.4266357 12.154968 3.6399841 18.340302 3.6399841c10.500732 0 20.641846 -2.3744812 30.42334 -7.123413c9.781494 -4.72287 17.369354 -11.0112915 22.76355 -18.865326c5.394226 -7.880127 8.091309 -16.516937 8.091309 -25.910461c-0.14382935 -5.870941 -1.762085 -11.781036 -4.854767 -17.730255c-3.092682 -5.9492188 -9.745544 -14.403381 -19.958588 -25.362488c-5.1065063 -5.479553 -8.594757 -9.941467 -10.464752 -13.385773c-1.8699951 -3.444275 -2.8049927 -7.4756775 -2.8049927 -12.094147c0 -8.141052 2.7810059 -15.225311 8.343048 -21.252838c5.5859985 -6.0274963 12.083008 -9.04126 19.491058 -9.04126c5.7538147 0 10.1770935 1.9178467 13.269745 5.75354c3.092682 3.8356934 4.639038 9.236969 4.639038 16.203827c0 5.557831 -0.2876892 11.389618 -0.8630676 17.495422l5.7178345 0c2.2296143 -16.43866 3.6680603 -25.949585 4.3153687 -28.532806c0.64730835 -2.5832214 1.5463562 -5.8318176 2.697113 -9.745789l1.1867371 -4.461914c-4.674988 -0.7828064 -9.457855 -1.5786438 -14.348602 -2.3875122c-4.890747 -0.83499146 -9.889374 -1.2524719 -14.995911 -1.2524719zm207.0297 -0.46966553c-13.161865 0 -26.17987 4.957672 -39.054077 14.873047c-12.8741455 9.889282 -23.326965 23.053253 -31.358337 39.491913c-8.007385 16.43866 -12.011108 33.112152 -12.011108 50.020477c0 11.741882 2.0498047 22.153046 6.149414 31.23346c4.0996094 9.080383 9.853455 16.047241 17.261475 20.900574c7.40802 4.853302 15.787048 7.2799683 25.137024 7.2799683c5.250366 0 10.548645 -1.0176392 15.894897 -3.052887c5.3702393 -2.0352783 10.320923 -4.775055 14.852051 -8.21933c4.531128 -3.4443054 8.678711 -7.553955 12.442627 -12.32901c3.7879639 -4.7750244 5.681946 -8.21933 5.681946 -10.332855c0 -0.7045288 -0.31170654 -1.4481812 -0.93499756 -2.230957c-0.59936523 -0.7828064 -1.4025269 -1.1741943 -2.4094238 -1.1741943c-0.7192383 0 -1.6062622 0.6914673 -2.6611328 2.0744019c-1.0308838 1.356842 -2.2895508 3.052887 -3.77594 5.0881653c-1.4624634 2.0352478 -3.128662 4.2270813 -4.998657 6.5754395c-1.8699951 2.3483887 -4.0516357 4.540222 -6.544983 6.57547c-2.4693604 2.0352478 -5.2383423 3.7313232 -8.307068 5.0881653c-3.0447388 1.3829346 -6.4370728 2.0744019 -10.177063 2.0744019c-9.637634 0 -17.285461 -4.6576233 -22.94336 -13.97287c-5.633972 -9.315247 -8.450928 -21.68335 -8.450928 -37.1044c0 -15.342743 2.637146 -30.450623 7.911499 -45.3237c5.298279 -14.873077 12.490601 -27.01941 21.576843 -36.439026c9.1102295 -9.445679 18.376282 -14.168549 27.798157 -14.168549c7.1922607 0 12.778259 2.7006226 16.757996 8.101898c4.003662 5.4012756 6.005554 13.385773 6.005554 23.953491c0 2.3483582 -0.21575928 6.810272 -0.64733887 13.385742l5.933655 0c0.50341797 -14.403381 2.9128418 -28.806793 7.2282104 -43.210175l-8.522827 -3.052887c-10.932251 -4.070526 -20.210327 -6.105774 -27.834106 -6.105774z" fill-rule="evenodd"/></g></svg>